ffmpeg started on 2016-11-30 at 23:10:49
Report written to "Output/x264/results/ffmpeg/old_town_cross_2160p50fast15000k.log"
Command line:
Tools/ffmpeg/ffmpeg -benchmark -y -i Input/y4m/old_town_cross_2160p50.y4m -c:v libx264 -preset fast -b:v 15000k -an Output/x264/encoded/old_town_cross_2160p50fast15000k.mkv
ffmpeg version N-82227-gdb23fde Copyright (c) 2000-2016 the FFmpeg developers
  built with gcc 5.4.0 (Ubuntu 5.4.0-6ubuntu1~16.04.2) 20160609
  configuration: --prefix=/home/jaroslav/ffmpeg_build --pkg-config-flags=--static --extra-cflags=-I/home/jaroslav/ffmpeg_build/include --extra-ldflags=-L/home/jaroslav/ffmpeg_build/lib --bindir=/home/jaroslav/bin --enable-gpl --enable-libass --enable-libfdk-aac --enable-libfreetype --enable-libmp3lame --enable-libopus --enable-libtheora --enable-libvorbis --enable-libvpx --enable-libx264 --enable-libx265 --enable-nvenc --enable-libmfx --enable-libxvid --enable-libgsm --enable-libopencore-amrnb --enable-version3 --enable-nonfree
  libavutil      55. 35.100 / 55. 35.100
  libavcodec     57. 66.101 / 57. 66.101
  libavformat    57. 57.100 / 57. 57.100
  libavdevice    57.  2.100 / 57.  2.100
  libavfilter     6. 66.100 /  6. 66.100
  libswscale      4.  3.100 /  4.  3.100
  libswresample   2.  4.100 /  2.  4.100
  libpostproc    54.  2.100 / 54.  2.100
Input #0, yuv4mpegpipe, from 'Input/y4m/old_town_cross_2160p50.y4m':
  Duration: 00:00:10.00, start: 0.000000, bitrate: 4976642 kb/s
    Stream #0:0: Video: rawvideo (I420 / 0x30323449), yuv420p(progressive), 3840x2160, SAR 1:1 DAR 16:9, 50 fps, 50 tbr, 50 tbn, 50 tbc
[libx264 @ 0x2f2b120] using SAR=1/1
[libx264 @ 0x2f2b120] using cpu capabilities: MMX2 SSE2Fast SSSE3 SSE4.2 AVX FMA3 AVX2 LZCNT BMI2
[libx264 @ 0x2f2b120] profile High, level 5.2
[libx264 @ 0x2f2b120] 264 - core 148 - H.264/MPEG-4 AVC codec - Copyleft 2003-2016 - http://www.videolan.org/x264.html - options: cabac=1 ref=2 deblock=1:0:0 analyse=0x3:0x113 me=hex subme=6 psy=1 psy_rd=1.00:0.00 mixed_ref=1 me_range=16 chroma_me=1 trellis=1 8x8dct=1 cqm=0 deadzone=21,11 fast_pskip=1 chroma_qp_offset=-2 threads=6 lookahead_threads=1 sliced_threads=0 nr=0 decimate=1 interlaced=0 bluray_compat=0 constrained_intra=0 bframes=3 b_pyramid=2 b_adapt=1 b_bias=0 direct=1 weightb=1 open_gop=0 weightp=1 keyint=250 keyint_min=25 scenecut=40 intra_refresh=0 rc_lookahead=30 rc=abr mbtree=1 bitrate=15000 ratetol=1.0 qcomp=0.60 qpmin=0 qpmax=69 qpstep=4 ip_ratio=1.40 aq=1:1.00
Output #0, matroska, to 'Output/x264/encoded/old_town_cross_2160p50fast15000k.mkv':
  Metadata:
    encoder         : Lavf57.57.100
    Stream #0:0: Video: h264 (libx264) (H264 / 0x34363248), yuv420p, 3840x2160 [SAR 1:1 DAR 16:9], q=-1--1, 15000 kb/s, 50 fps, 1k tbn, 50 tbc
    Metadata:
      encoder         : Lavc57.66.101 libx264
    Side data:
      cpb: bitrate max/min/avg: 0/0/15000000 buffer size: 0 vbv_delay: -1
Stream mapping:
  Stream #0:0 -> #0:0 (rawvideo (native) -> h264 (libx264))
Press [q] to stop, [?] for help
frame=   37 fps= 20 q=0.0 size=       0kB time=00:00:00.00 bitrate=N/A speed=   0x    frame=   42 fps= 17 q=30.0 size=       1kB time=-00:00:00.01 bitrate=N/A speed=N/A    frame=   44 fps= 15 q=31.0 size=       1kB time=00:00:00.02 bitrate= 279.6kbits/s speed=0.00716x    frame=   49 fps= 14 q=47.0 size=       1kB time=00:00:00.12 bitrate=  48.5kbits/s speed=0.0349x    frame=   60 fps= 15 q=48.0 size=       1kB time=00:00:00.34 bitrate=  17.2kbits/s speed=0.0859x    frame=   70 fps= 15 q=44.0 size=       1kB time=00:00:00.54 bitrate=  10.9kbits/s speed=0.116x    frame=   79 fps= 15 q=42.0 size=       1kB time=00:00:00.72 bitrate=   8.1kbits/s speed=0.139x    frame=   90 fps= 15 q=39.0 size=       1kB time=00:00:00.94 bitrate=   6.2kbits/s speed=0.16x    frame=  100 fps= 16 q=38.0 size=       1kB time=00:00:01.14 bitrate=   5.1kbits/s speed=0.178x    frame=  108 fps= 16 q=37.0 size=       1kB time=00:00:01.30 bitrate=   4.5kbits/s speed=0.188x    frame=  116 fps= 16 q=36.0 size=       1kB time=00:00:01.46 bitrate=   4.0kbits/s speed=0.197x    frame=  124 fps= 15 q=35.0 size=       1kB time=00:00:01.62 bitrate=   3.6kbits/s speed=0.201x    frame=  133 fps= 15 q=34.0 size=       1kB time=00:00:01.80 bitrate=   3.3kbits/s speed=0.209x    frame=  141 fps= 15 q=34.0 size=       1kB time=00:00:01.96 bitrate=   3.0kbits/s speed=0.214x    frame=  149 fps= 15 q=34.0 size=       1kB time=00:00:02.12 bitrate=   2.8kbits/s speed=0.217x    frame=  156 fps= 15 q=33.0 size=       1kB time=00:00:02.26 bitrate=   2.6kbits/s speed=0.219x    frame=  164 fps= 15 q=33.0 size=       1kB time=00:00:02.42 bitrate=   2.4kbits/s speed=0.223x    frame=  172 fps= 15 q=33.0 size=       1kB time=00:00:02.58 bitrate=   2.3kbits/s speed=0.225x    frame=  179 fps= 15 q=33.0 size=       1kB time=00:00:02.72 bitrate=   2.2kbits/s speed=0.226x    frame=  187 fps= 15 q=33.0 size=    5126kB time=00:00:02.88 bitrate=14576.2kbits/s speed=0.228x    frame=  193 fps= 15 q=33.0 size=    5126kB time=00:00:03.00 bitrate=13993.3kbits/s speed=0.228x    frame=  200 fps= 15 q=33.0 size=    5126kB time=00:00:03.14 bitrate=13369.6kbits/s speed=0.229x    frame=  207 fps= 15 q=33.0 size=    5126kB time=00:00:03.28 bitrate=12799.2kbits/s speed=0.23x    frame=  213 fps= 14 q=33.0 size=    5126kB time=00:00:03.40 bitrate=12347.6kbits/s speed=0.229x    frame=  220 fps= 14 q=33.0 size=    5126kB time=00:00:03.54 bitrate=11859.4kbits/s speed=0.231x    frame=  228 fps= 14 q=33.0 size=    5126kB time=00:00:03.70 bitrate=11346.7kbits/s speed=0.232x    frame=  235 fps= 14 q=33.0 size=    5126kB time=00:00:03.84 bitrate=10933.1kbits/s speed=0.232x    frame=  243 fps= 14 q=33.0 size=    5126kB time=00:00:04.00 bitrate=10495.9kbits/s speed=0.233x    frame=  250 fps= 14 q=33.0 size=    5126kB time=00:00:04.14 bitrate=10141.0kbits/s speed=0.234x    frame=  252 fps= 14 q=33.0 size=    5126kB time=00:00:04.18 bitrate=10044.0kbits/s speed=0.226x    frame=  254 fps= 13 q=33.0 size=    5126kB time=00:00:04.22 bitrate=9948.8kbits/s speed=0.221x    frame=  256 fps= 13 q=33.0 size=    5126kB time=00:00:04.26 bitrate=9855.4kbits/s speed=0.216x    frame=  261 fps= 13 q=33.0 size=    5126kB time=00:00:04.36 bitrate=9629.5kbits/s speed=0.215x    frame=  266 fps= 13 q=33.0 size=    5126kB time=00:00:04.46 bitrate=9413.6kbits/s speed=0.213x    frame=  271 fps= 13 q=33.0 size=    5126kB time=00:00:04.56 bitrate=9207.2kbits/s speed=0.212x    frame=  276 fps= 12 q=33.0 size=    5126kB time=00:00:04.66 bitrate=9009.7kbits/s speed=0.211x    frame=  281 fps= 12 q=33.0 size=    5126kB time=00:00:04.76 bitrate=8820.4kbits/s speed=0.209x    frame=  286 fps= 12 q=34.0 size=    5126kB time=00:00:04.86 bitrate=8639.0kbits/s speed=0.209x    frame=  293 fps= 12 q=34.0 size=    9271kB time=00:00:05.00 bitrate=15186.3kbits/s speed=0.21x    frame=  299 fps= 12 q=34.0 size=    9271kB time=00:00:05.12 bitrate=14830.4kbits/s speed=0.211x    frame=  306 fps= 12 q=34.0 size=    9271kB time=00:00:05.26 bitrate=14435.7kbits/s speed=0.211x    frame=  315 fps= 12 q=34.0 size=    9271kB time=00:00:05.44 bitrate=13958.2kbits/s speed=0.214x    frame=  321 fps= 12 q=34.0 size=    9271kB time=00:00:05.56 bitrate=13657.0kbits/s speed=0.214x    frame=  328 fps= 12 q=33.0 size=    9271kB time=00:00:05.70 bitrate=13321.6kbits/s speed=0.214x    frame=  337 fps= 12 q=33.0 size=    9271kB time=00:00:05.88 bitrate=12913.9kbits/s speed=0.216x    frame=  345 fps= 12 q=33.0 size=    9271kB time=00:00:06.04 bitrate=12571.8kbits/s speed=0.217x    frame=  352 fps= 12 q=33.0 size=    9271kB time=00:00:06.18 bitrate=12287.1kbits/s speed=0.219x    frame=  358 fps= 12 q=33.0 size=    9271kB time=00:00:06.30 bitrate=12053.1kbits/s speed=0.219x    frame=  364 fps= 12 q=33.0 size=    9271kB time=00:00:06.42 bitrate=11827.8kbits/s speed=0.219x    frame=  372 fps= 12 q=33.0 size=    9271kB time=00:00:06.58 bitrate=11540.3kbits/s speed=0.22x    frame=  380 fps= 12 q=33.0 size=    9271kB time=00:00:06.74 bitrate=11266.4kbits/s speed=0.221x    frame=  386 fps= 12 q=33.0 size=    9271kB time=00:00:06.86 bitrate=11069.3kbits/s speed=0.221x    frame=  393 fps= 12 q=33.0 size=    9271kB time=00:00:07.00 bitrate=10847.9kbits/s speed=0.221x    frame=  400 fps= 12 q=33.0 size=    9271kB time=00:00:07.14 bitrate=10635.3kbits/s speed=0.222x    frame=  406 fps= 12 q=33.0 size=    9271kB time=00:00:07.26 bitrate=10459.5kbits/s speed=0.222x    frame=  412 fps= 12 q=33.0 size=    9271kB time=00:00:07.38 bitrate=10289.5kbits/s speed=0.222x    frame=  420 fps= 12 q=33.0 size=    9271kB time=00:00:07.54 bitrate=10071.1kbits/s speed=0.222x    frame=  428 fps= 12 q=33.0 size=    9271kB time=00:00:07.70 bitrate=9861.9kbits/s speed=0.222x    frame=  436 fps= 12 q=33.0 size=   14392kB time=00:00:07.86 bitrate=14997.5kbits/s speed=0.223x    frame=  444 fps= 12 q=33.0 size=   14392kB time=00:00:08.02 bitrate=14698.3kbits/s speed=0.223x    frame=  452 fps= 12 q=33.0 size=   14392kB time=00:00:08.18 bitrate=14410.9kbits/s speed=0.224x    frame=  460 fps= 12 q=33.0 size=   14392kB time=00:00:08.34 bitrate=14134.4kbits/s speed=0.224x    frame=  468 fps= 12 q=33.0 size=   14392kB time=00:00:08.50 bitrate=13868.4kbits/s speed=0.225x    frame=  474 fps= 12 q=33.0 size=   14392kB time=00:00:08.62 bitrate=13675.4kbits/s speed=0.225x    frame=  481 fps= 12 q=33.0 size=   14392kB time=00:00:08.76 bitrate=13456.8kbits/s speed=0.225x    frame=  488 fps= 12 q=33.0 size=   14392kB time=00:00:08.90 bitrate=13245.2kbits/s speed=0.225x    frame=  493 fps= 12 q=33.0 size=   14392kB time=00:00:09.00 bitrate=13098.0kbits/s speed=0.222x    frame=  495 fps= 12 q=33.0 size=   14392kB time=00:00:09.04 bitrate=13040.1kbits/s speed=0.22x    frame=  497 fps= 12 q=33.0 size=   14392kB time=00:00:09.08 bitrate=12982.6kbits/s speed=0.218x    frame=  500 fps= 11 q=-1.0 Lsize=   18775kB time=00:00:09.94 bitrate=15471.8kbits/s speed=0.221x    
video:18770kB audio:0kB subtitle:0kB other streams:0kB global headers:0kB muxing overhead: 0.024843%
bench: utime=158.668s
bench: maxrss=1610468kB
[libx264 @ 0x2f2b120] frame I:3     Avg QP:28.08  size:683684
[libx264 @ 0x2f2b120] frame P:183   Avg QP:31.93  size: 58636
[libx264 @ 0x2f2b120] frame B:314   Avg QP:34.11  size: 20506
[libx264 @ 0x2f2b120] consecutive B-frames: 16.0%  0.8%  0.0% 83.2%
[libx264 @ 0x2f2b120] mb I  I16..4:  2.9% 84.0% 13.1%
[libx264 @ 0x2f2b120] mb P  I16..4:  0.2%  2.2%  0.0%  P16..4: 39.9%  4.2%  5.4%  0.0%  0.0%    skip:48.0%
[libx264 @ 0x2f2b120] mb B  I16..4:  1.0%  1.0%  0.0%  B16..8: 14.0%  0.7%  0.0%  direct:11.8%  skip:71.5%  L0:38.6% L1:59.8% BI: 1.6%
[libx264 @ 0x2f2b120] final ratefactor: 25.28
[libx264 @ 0x2f2b120] 8x8 transform intra:70.1% inter:81.2%
[libx264 @ 0x2f2b120] coded y,uvDC,uvAC intra: 59.6% 68.4% 48.7% inter: 8.1% 8.8% 0.1%
[libx264 @ 0x2f2b120] i16 v,h,dc,p: 29% 21% 39% 10%
[libx264 @ 0x2f2b120] i8 v,h,dc,ddl,ddr,vr,hd,vl,hu:  8% 11% 54%  5%  4%  4%  5%  4%  5%
[libx264 @ 0x2f2b120] i4 v,h,dc,ddl,ddr,vr,hd,vl,hu: 16% 22% 19%  7%  7%  7%  9%  6%  7%
[libx264 @ 0x2f2b120] i8c dc,h,v,p: 72% 13% 13%  2%
[libx264 @ 0x2f2b120] Weighted P-Frames: Y:0.5% UV:0.0%
[libx264 @ 0x2f2b120] ref P L0: 58.0% 42.0%
[libx264 @ 0x2f2b120] ref B L0: 83.6% 16.4%
[libx264 @ 0x2f2b120] ref B L1: 95.2%  4.8%
[libx264 @ 0x2f2b120] kb/s:15376.15
